<?xml version="1.0" encoding="UTF-8"?>
<svg xmlns="http://www.w3.org/2000/svg" viewBox="0 0 642 96" width="642" height="96">
  <rect width="642" height="96" fill="#0D1B2A"/>
  <line x1="30.0" y1="34.0" x2="48.0" y2="62.0" stroke="#00C2A8" stroke-width="1.5" stroke-opacity="0.55"/>
  <line x1="66.0" y1="34.0" x2="48.0" y2="62.0" stroke="#00C2A8" stroke-width="1.5" stroke-opacity="0.55"/>
  <line x1="30.0" y1="34.0" x2="66.0" y2="34.0" stroke="#0FA3FF" stroke-width="1.5" stroke-opacity="0.45"/>
  <circle cx="30.0" cy="34.0" r="10.0" fill="rgba(0,194,168,0.08)" stroke="#00C2A8" stroke-width="0.6"/>
  <circle cx="66.0" cy="34.0" r="10.0" fill="rgba(15,163,255,0.08)" stroke="#0FA3FF" stroke-width="0.6"/>
  <circle cx="48.0" cy="62.0" r="10.0" fill="rgba(0,194,168,0.08)" stroke="#00C2A8" stroke-width="0.6"/>
  <circle cx="30.0" cy="34.0" r="5.0" fill="#00C2A8"/>
  <circle cx="66.0" cy="34.0" r="5.0" fill="#0FA3FF"/>
  <circle cx="48.0" cy="62.0" r="5.0" fill="#00C2A8"/>
  <circle cx="48.0" cy="43.0" r="2.0" fill="rgba(255,255,255,0.22)"/>
  <path d="M133.328 61.44V50.239999999999995H165.264Q167.184 50.239999999999995 168.49599999999998 49.632Q169.808 49.024 169.808 47.04Q169.808 44.992000000000004 168.49599999999998 44.416000000000004Q167.184 43.84 165.264 43.84H134.352V72.0H118.352V31.04H162.768Q167.56799999999998 31.04 171.76 31.712Q175.952 32.384 179.088 34.111999999999995Q182.224 35.839999999999996 184.016 38.976Q185.808 42.111999999999995 185.808 47.04Q185.808 51.968 184.016 54.848Q182.224 57.728 179.088 59.135999999999996Q175.952 60.544 171.76 60.992Q167.56799999999998 61.44 162.768 61.44Z M208.304 65.792V56.192H252.08V65.792ZM193.968 72.0 221.424 31.04H239.216L266.928 72.0H249.328L225.584 35.327999999999996H235.12L211.568 72.0Z" fill="#F4F6F9"/>
  <path d="M276.048 72.0V31.04H325.52Q331.344 31.04 335.984 32.352000000000004Q340.62399999999997 33.664 343.34399999999994 36.736000000000004Q346.06399999999996 39.808 346.06399999999996 45.120000000000005Q346.06399999999996 48.64 344.784 50.944Q343.504 53.248000000000005 341.264 54.528000000000006Q339.024 55.808 336.144 56.384Q333.264 56.96 330.128 57.088L325.45599999999996 56.192Q333.072 56.256 337.2 56.832Q341.328 57.408 342.96 58.912Q344.592 60.416 344.592 63.232V72.0H328.592V65.152Q328.592 63.232 327.856 62.239999999999995Q327.12 61.248 324.656 60.864000000000004Q322.192 60.480000000000004 317.072 60.480000000000004H292.048V72.0ZM292.048 49.792H325.52Q327.44 49.792 328.75199999999995 49.152Q330.06399999999996 48.512 330.06399999999996 46.72Q330.06399999999996 45.056 328.75199999999995 44.448Q327.44 43.84 325.52 43.84H292.048Z M369.392 65.792V56.192H413.168V65.792ZM355.056 72.0 382.512 31.04H400.304L428.016 72.0H410.416L386.672 35.327999999999996H396.20799999999997L372.656 72.0Z" fill="#00C2A8"/>
  <path d="M487.952 67.136H478.352L513.296 31.04H529.296V72.0H513.296V44.096000000000004L518.096 46.08L492.81600000000003 72.0H473.616L448.272 46.144L453.136 44.16V72.0H437.136V31.04H453.136Z M552.7520000000001 65.792V56.192H596.528V65.792ZM538.416 72.0 565.8720000000001 31.04H583.6640000000001L611.3760000000001 72.0H593.7760000000001L570.032 35.327999999999996H579.5680000000001L556.0160000000001 72.0Z" fill="#F4F6F9"/>
</svg>